# xmcd
#
# Track frame offsets:
# 225
# 24967
# 51798
# 66119
# 99177
# 127462
# 149993
# 180268
# 198424
# 220287
# 240664
# 269396
# 295646
# 312922
#
# Disc length: 4571 seconds
#
#
# Revision: 0
# Processed by: cddbd v1.5.1PL0 Copyright (c) Steve Scherf et al.
# Submitted via: FreeRIP 2.942 
#
DISCID=d511d80e
DTITLE=Various Artist - Natural Chillout - Organic Sounds [CD2)
DYEAR=2004
DGENRE=Electronic
TTITLE0=Laurent Garnier - City Sphere
TTITLE1=Moloko - Sing it back
TTITLE2=Layo and Bushwacka - Love story (radio edit)
TTITLE3=St. Germain - Alabama Blues
TTITLE4=Alex Kid - Night Lines
TTITLE5=Mandalay - Deep love
TTITLE6=Ian Pooley - Balmes A better life
TTITLE7=Groove Armada - Fireside
TTITLE8=Llorca - I cry
TTITLE9=Alex Gopher - The child
TTITLE10=Aqua Bassino - Baby C Mon
TTITLE11=Gus Gus - Nothern lights
TTITLE12=Sunday Child - Things you said
TTITLE13=Basement Jaxx - Just i kiss
EXTD=
EXTT0=
EXTT1=
EXTT2=
EXTT3=
EXTT4=
EXTT5=
EXTT6=
EXTT7=
EXTT8=
EXTT9=
EXTT10=
EXTT11=
EXTT12=
EXTT13=
PLAYORDER=
